HIERARCHY
ROOT joint_Root
{
	OFFSET 0.0 0.0 0.0
	CHANNELS 6 Xposition Yposition Zposition Zrotation Xrotation Yrotation 
	JOINT Hips
	{
		OFFSET -17.1583 93.1646 452.98
		CHANNELS 6 Xposition Yposition Zposition Zrotation Xrotation Yrotation 
		JOINT Spine
		{
			OFFSET 15.7357 0.0 0.0
			CHANNELS 6 Xposition Yposition Zposition Zrotation Xrotation Yrotation 
			JOINT Chest
			{
				OFFSET 8.98455 -0.406207 0.0
				CHANNELS 6 Xposition Yposition Zposition Zrotation Xrotation Yrotation 
				JOINT Neck
				{
					OFFSET 16.3773 0.0 0.0
					CHANNELS 6 Xposition Yposition Zposition Zrotation Xrotation Yrotation 
					JOINT Head
					{
						OFFSET 6.45672 0.0 0.0
						CHANNELS 6 Xposition Yposition Zposition Zrotation Xrotation Yrotation 
						End Site
						{
							OFFSET 0.0 0.0 0.0
						}
					}
				}
				JOINT Shoulder_L
				{
					OFFSET 12.9942 -0.242716 4.98039
					CHANNELS 6 Xposition Yposition Zposition Zrotation Xrotation Yrotation 
					JOINT UpperArm_L
					{
						OFFSET 5.34809 0.0 0.0
						CHANNELS 6 Xposition Yposition Zposition Zrotation Xrotation Yrotation 
						JOINT LowerArm_L
						{
							OFFSET 24.3286 1.87007e-05 0.0
							CHANNELS 6 Xposition Yposition Zposition Zrotation Xrotation Yrotation 
							JOINT Hand_L
							{
								OFFSET 22.2916 0.0 0.0
								CHANNELS 6 Xposition Yposition Zposition Zrotation Xrotation Yrotation 
								End Site
								{
									OFFSET 0.0 0.0 0.0
								}
							}
						}
					}
				}
				JOINT Shoulder_R
				{
					OFFSET 12.9945 -0.242716 -4.98039
					CHANNELS 6 Xposition Yposition Zposition Zrotation Xrotation Yrotation 
					JOINT UpperArm_R
					{
						OFFSET -5.34813 0.0 0.0
						CHANNELS 6 Xposition Yposition Zposition Zrotation Xrotation Yrotation 
						JOINT LowerArm_R
						{
							OFFSET -24.3289 0.000322201 0.0
							CHANNELS 6 Xposition Yposition Zposition Zrotation Xrotation Yrotation 
							JOINT Hand_R
							{
								OFFSET -22.2915 -0.000108084 0.0
								CHANNELS 6 Xposition Yposition Zposition Zrotation Xrotation Yrotation 
								End Site
								{
									OFFSET 0.0 0.0 0.0
								}
							}
						}
					}
				}
			}
		}
		JOINT UpperLeg_L
		{
			OFFSET -2.19248 -6.46944 0.0
			CHANNELS 6 Xposition Yposition Zposition Zrotation Xrotation Yrotation 
			JOINT LowerLeg_L
			{
				OFFSET 39.0811 0.0 -1.23785e-05
				CHANNELS 6 Xposition Yposition Zposition Zrotation Xrotation Yrotation 
				JOINT Foot_L
				{
					OFFSET 40.9854 0.0 -1.26872e-05
					CHANNELS 6 Xposition Yposition Zposition Zrotation Xrotation Yrotation 
					JOINT Toes_L
					{
						OFFSET 11.7543 0.0 0.0
						CHANNELS 6 Xposition Yposition Zposition Zrotation Xrotation Yrotation 
						End Site
						{
							OFFSET 0.0 0.0 0.0
						}
					}
				}
			}
		}
		JOINT UpperLeg_R
		{
			OFFSET -2.19251 6.46944 0.0
			CHANNELS 6 Xposition Yposition Zposition Zrotation Xrotation Yrotation 
			JOINT LowerLeg_R
			{
				OFFSET -39.0811 -0.00228153 -0.0401928
				CHANNELS 6 Xposition Yposition Zposition Zrotation Xrotation Yrotation 
				JOINT Foot_R
				{
					OFFSET -40.9854 0.0 0.0
					CHANNELS 6 Xposition Yposition Zposition Zrotation Xrotation Yrotation 
					JOINT Toes_R
					{
						OFFSET -11.7543 0.0 0.0
						CHANNELS 6 Xposition Yposition Zposition Zrotation Xrotation Yrotation 
						End Site
						{
							OFFSET 0.0 0.0 0.0
						}
					}
				}
			}
		}
	}
}
MOTION
Frames:	5
Frame Time:	0.0333333
0.000000 0.000000 0.000000 0.000000 0.000000 -0.000000 -5.294680 91.112600 0.573081 83.009600 -0.284197 6.932960 15.735700 0.000005 -0.000001 76.694100 85.995600 -74.334500 8.984550 -0.406207 -0.000000 0.073823 -2.001050 4.717680 16.377300 -0.000001 -0.000001 14.597200 3.243240 3.634050 6.456720 -0.000001 -0.000000 -4.368830 2.144290 14.325500 12.994200 -0.242716 4.980390 -92.742900 7.388960 -69.568000 5.348090 -0.000007 -0.000001 -75.977900 -23.362700 -7.313950 24.328600 0.000019 0.000005 38.500400 -36.246700 -126.624000 22.291600 -0.000001 0.000005 57.265900 4.725630 12.697500 12.994500 -0.242716 -4.980390 86.314100 8.924850 -67.449600 -5.348130 -0.000001 -0.000004 -66.105600 -3.764870 -6.383930 -24.328900 0.000322 -0.000009 14.025000 -14.428800 -134.928000 -22.291500 -0.000108 -0.000004 59.553300 5.652120 -15.225600 -2.192480 -6.469440 -0.000000 -172.314000 8.349990 -1.691790 39.081100 -0.000007 -0.000012 0.525606 -0.835386 32.178800 40.985400 -0.000006 -0.000013 -2.255150 -1.770080 -79.406900 11.754300 -0.000000 0.000003 -0.000133 0.169834 -9.688340 -2.192510 6.469440 -0.000001 -168.936000 13.253400 -173.505000 -39.081100 -0.002282 -0.040193 0.172435 -0.548161 17.145300 -40.985400 0.000008 0.000006 7.438280 3.546920 -73.012100 -11.754300 -0.000006 -0.000006 -0.008603 0.260556 -5.990420
0.000000 0.000000 0.000000 0.000000 0.000000 -0.000000 -5.297690 91.105000 0.572727 82.992500 -0.201397 6.989720 15.735700 0.000005 -0.000001 76.377100 85.994800 -73.995600 8.984550 -0.406207 -0.000000 0.066326 -2.046100 4.761570 16.377300 -0.000001 -0.000001 14.623600 3.248810 3.564460 6.456720 -0.000001 -0.000000 -4.264260 2.219730 14.224500 12.994200 -0.242716 4.980390 -92.716600 7.318010 -69.569300 5.348090 -0.000007 -0.000001 -76.914600 -24.675100 -7.683700 24.328600 0.000019 0.000005 34.879500 -32.851800 -127.890000 22.291600 -0.000001 0.000005 54.998600 4.548940 15.787900 12.994500 -0.242716 -4.980390 86.304800 8.933070 -67.417200 -5.348130 -0.000001 -0.000004 -66.780800 -4.851880 -6.643620 -24.328900 0.000322 -0.000009 9.402930 -9.765960 -135.686000 -22.291500 -0.000108 -0.000004 59.042800 5.579700 -10.195200 -2.192480 -6.469440 -0.000000 -172.294000 8.375250 -1.683050 39.081100 -0.000007 -0.000012 0.530228 -0.840768 32.239100 40.985400 -0.000006 -0.000013 -2.247770 -1.708960 -79.472300 11.754300 -0.000000 0.000003 -0.000192 0.170793 -9.649370 -2.192510 6.469440 -0.000001 -168.894000 13.171200 -173.484000 -39.081100 -0.002282 -0.040193 0.173074 -0.549045 17.180300 -40.985400 0.000008 0.000006 7.413760 3.386950 -73.005200 -11.754300 -0.000006 -0.000006 -0.008375 0.258731 -6.064960
0.000000 0.000000 0.000000 0.000000 0.000000 -0.000000 -5.292400 91.102300 0.574972 82.995700 -0.134978 6.973730 15.735700 0.000005 -0.000001 75.958400 86.005700 -73.565100 8.984550 -0.406207 -0.000000 0.032546 -2.099150 4.784610 16.377300 -0.000001 -0.000001 14.644900 3.299640 3.465540 6.456720 -0.000001 -0.000000 -4.220850 2.318040 14.184200 12.994200 -0.242716 4.980390 -92.685400 7.255820 -69.626700 5.348090 -0.000007 -0.000001 -77.696200 -26.304400 -7.856050 24.328600 0.000019 0.000005 29.637500 -28.663600 -130.133000 22.291600 -0.000001 0.000005 52.853800 4.377090 18.590000 12.994500 -0.242716 -4.980390 86.328200 8.878440 -67.423000 -5.348130 -0.000001 -0.000004 -67.296100 -5.839700 -6.684490 -24.328900 0.000322 -0.000009 2.991150 -3.177170 -136.686000 -22.291500 -0.000108 -0.000004 59.176200 5.503990 -6.703430 -2.192480 -6.469440 -0.000000 -172.284000 8.362770 -1.724060 39.081100 -0.000007 -0.000012 0.526335 -0.834198 32.251300 40.985400 -0.000006 -0.000013 -2.230880 -1.661980 -79.433200 11.754300 -0.000000 0.000003 -0.000132 0.169814 -9.689130 -2.192510 6.469440 -0.000001 -168.908000 13.241800 -173.533000 -39.081100 -0.002282 -0.040193 0.173899 -0.550148 17.226300 -40.985400 0.000008 0.000006 7.401560 3.373610 -73.052300 -11.754300 -0.000006 -0.000006 -0.008911 0.262983 -5.891210
0.000000 0.000000 0.000000 0.000000 0.000000 -0.000000 -5.280610 91.099600 0.596491 83.014300 -0.138347 7.019400 15.735700 0.000005 -0.000001 75.940800 85.997800 -73.556700 8.984550 -0.406207 -0.000000 0.047289 -2.104450 4.766570 16.377300 -0.000001 -0.000001 14.725100 3.341080 3.461180 6.456720 -0.000001 -0.000000 -4.227710 2.437770 14.166600 12.994200 -0.242716 4.980390 -92.668700 7.191470 -69.577700 5.348090 -0.000007 -0.000001 -78.287500 -27.508700 -7.944820 24.328600 0.000019 0.000005 24.055100 -24.225400 -132.590000 22.291600 -0.000001 0.000005 51.750200 4.222820 20.969700 12.994500 -0.242716 -4.980390 86.321600 8.883130 -67.397000 -5.348130 -0.000001 -0.000004 -67.573900 -6.718060 -6.560350 -24.328900 0.000322 -0.000009 -2.970380 3.205950 -137.146000 -22.291500 -0.000108 -0.000004 59.594700 5.449170 -4.611390 -2.192480 -6.469440 -0.000000 -172.311000 8.336990 -1.659650 39.081100 -0.000007 -0.000012 0.523583 -0.830180 32.240600 40.985400 -0.000006 -0.000013 -2.207220 -1.627300 -79.425100 11.754300 -0.000000 0.000003 -0.000033 0.168176 -9.755660 -2.192510 6.469440 -0.000001 -168.946000 13.233200 -173.479000 -39.081100 -0.002282 -0.040193 0.174656 -0.551959 17.244800 -40.985400 0.000008 0.000006 7.393890 3.375600 -73.051700 -11.754300 -0.000006 -0.000006 -0.008453 0.259355 -6.039460
0.000000 0.000000 0.000000 0.000000 0.000000 -0.000000 -5.268540 91.101400 0.621052 83.050800 -0.168134 7.007090 15.735700 0.000005 -0.000001 76.017200 86.003700 -73.663100 8.984550 -0.406207 -0.000000 0.037414 -2.089430 4.706180 16.377300 -0.000001 -0.000001 14.668200 3.381540 3.471940 6.456720 -0.000001 -0.000000 -4.121360 2.547830 14.261500 12.994200 -0.242716 4.980390 -92.662200 7.144160 -69.500200 5.348090 -0.000007 -0.000001 -78.599400 -27.954400 -7.900230 24.328600 0.000019 0.000005 21.663800 -22.394500 -133.805000 22.291600 -0.000001 0.000005 52.062500 4.139960 22.203000 12.994500 -0.242716 -4.980390 86.324600 8.834800 -67.303100 -5.348130 -0.000001 -0.000004 -67.668500 -6.906520 -6.245340 -24.328900 0.000322 -0.000009 -3.471560 3.736530 -137.052000 -22.291500 -0.000108 -0.000004 59.823300 5.413500 -3.381450 -2.192480 -6.469440 -0.000000 -172.362000 8.319550 -1.609880 39.081100 -0.000007 -0.000012 0.525574 -0.834849 32.193800 40.985400 -0.000006 -0.000013 -2.195000 -1.631810 -79.479100 11.754300 -0.000000 0.000003 -0.000246 0.171672 -9.613670 -2.192510 6.469440 -0.000001 -168.988000 13.236400 -173.458000 -39.081100 -0.002282 -0.040193 0.175491 -0.554989 17.234900 -40.985400 0.000008 0.000006 7.384150 3.366000 -73.085800 -11.754300 -0.000006 -0.000006 -0.008635 0.260807 -5.980130
